<svg width="14" height="14" viewBox="0 0 14 14" fill="none" xmlns="http://www.w3.org/2000/svg">
<path d="M0.628744 2.64073C0.628744 3.75201 3.03105 4.65271 5.99403 4.65271C8.95701 4.65271 11.3593 3.75201 11.3593 2.64073M0.628744 2.64073C0.628744 1.52944 3.03105 0.628744 5.99403 0.628744C8.95701 0.628744 11.3593 1.52944 11.3593 2.64073M0.628744 2.64073V6.66469M11.3593 2.64073V6.66469M0.628744 6.66469C0.628744 7.77598 3.03105 8.67667 5.99403 8.67667C6.74383 8.67667 7.45808 8.619 8.10661 8.51504M0.628744 6.66469V10.6887C0.628744 11.7999 3.03105 12.7006 5.99403 12.7006C6.09932 12.7006 6.20328 12.6993 6.30656 12.6973M8.67667 11.3593H12.7006M12.7006 11.3593L10.6887 9.34733M12.7006 11.3593L10.6887 13.3713" stroke="#7D7D7D" stroke-width="1.25" stroke-linecap="round" stroke-linejoin="round"/>
</svg>
