<svg width="14" height="12" viewBox="0 0 14 12" fill="none" xmlns="http://www.w3.org/2000/svg">
<path d="M8.01401 3.3147V1.97203C8.01401 1.61594 7.87255 1.27443 7.62076 1.02263C7.36896 0.770831 7.02745 0.629373 6.67135 0.629373H1.97203C1.61594 0.629373 1.27443 0.770831 1.02263 1.02263C0.770831 1.27443 0.629373 1.61594 0.629373 1.97203V10.028C0.629373 10.3841 0.770831 10.7256 1.02263 10.9774C1.27443 11.2292 1.61594 11.3707 1.97203 11.3707H6.67135C7.02745 11.3707 7.36896 11.2292 7.62076 10.9774C7.87255 10.7256 8.01401 10.3841 8.01401 10.028V8.68534M4.65736 6.00002H12.7133M12.7133 6.00002L10.6993 3.98603M12.7133 6.00002L10.6993 8.01401" stroke="#B01212" stroke-width="1.25" stroke-linecap="round" stroke-linejoin="round"/>
</svg>
