<svg width="12" height="12" viewBox="0 0 12 12" fill="none" xmlns="http://www.w3.org/2000/svg">
<path d="M4.65739 0.62948L7.34265 11.3705M6.00002 5.99999L0.62951 7.34262M0.62951 1.97211C0.62951 1.61602 0.770965 1.27452 1.02276 1.02273C1.27455 0.770935 1.61605 0.62948 1.97214 0.62948H10.0279C10.384 0.62948 10.7255 0.770935 10.9773 1.02273C11.2291 1.27452 11.3705 1.61602 11.3705 1.97211V10.0279C11.3705 10.384 11.2291 10.7255 10.9773 10.9773C10.7255 11.229 10.384 11.3705 10.0279 11.3705H1.97214C1.61605 11.3705 1.27455 11.229 1.02276 10.9773C0.770965 10.7255 0.62951 10.384 0.62951 10.0279V1.97211Z" stroke="#BF82FF" stroke-width="1.25" stroke-linecap="round" stroke-linejoin="round"/>
</svg>
