<svg width="11" height="14" viewBox="0 0 11 14" fill="none" xmlns="http://www.w3.org/2000/svg">
<path d="M3.42126 2.03543H2.03543C1.66789 2.03543 1.3154 2.18144 1.0555 2.44133C0.795612 2.70122 0.649606 3.05371 0.649606 3.42126V11.7362C0.649606 12.1038 0.795612 12.4562 1.0555 12.7161C1.3154 12.976 1.66789 13.122 2.03543 13.122H8.96456C9.3321 13.122 9.68459 12.976 9.94448 12.7161C10.2044 12.4562 10.3504 12.1038 10.3504 11.7362V3.42126C10.3504 3.05371 10.2044 2.70122 9.94448 2.44133C9.68459 2.18144 9.3321 2.03543 8.96456 2.03543H7.57873M3.42126 2.03543C3.42126 1.66789 3.56726 1.3154 3.82716 1.0555C4.08705 0.795612 4.43954 0.649606 4.80708 0.649606H6.19291C6.56045 0.649606 6.91294 0.795612 7.17283 1.0555C7.43273 1.3154 7.57873 1.66789 7.57873 2.03543M3.42126 2.03543C3.42126 2.40297 3.56726 2.75547 3.82716 3.01536C4.08705 3.27525 4.43954 3.42126 4.80708 3.42126H6.19291C6.56045 3.42126 6.91294 3.27525 7.17283 3.01536C7.43273 2.75547 7.57873 2.40297 7.57873 2.03543M3.42126 10.3504V7.57873M5.49999 10.3504V9.65747M7.57873 10.3504V8.96456" stroke="#7D7D7D" stroke-width="1.25" stroke-linecap="round" stroke-linejoin="round"/>
</svg>
