<svg width="14" height="14" viewBox="0 0 14 14" fill="none" xmlns="http://www.w3.org/2000/svg">
<path d="M13.3396 13.3396L9.11321 9.11321M0.660377 5.5912C0.660377 6.23872 0.787917 6.8799 1.03571 7.47814C1.28351 8.07637 1.64671 8.61994 2.10458 9.07781C2.56245 9.53568 3.10602 9.89888 3.70425 10.1467C4.30249 10.3945 4.94367 10.522 5.5912 10.522C6.23872 10.522 6.8799 10.3945 7.47814 10.1467C8.07637 9.89888 8.61994 9.53568 9.07781 9.07781C9.53568 8.61994 9.89888 8.07637 10.1467 7.47814C10.3945 6.8799 10.522 6.23872 10.522 5.5912C10.522 4.94367 10.3945 4.30249 10.1467 3.70425C9.89888 3.10602 9.53568 2.56245 9.07781 2.10458C8.61994 1.64671 8.07637 1.28351 7.47814 1.03571C6.8799 0.787917 6.23872 0.660377 5.5912 0.660377C4.94367 0.660377 4.30249 0.787917 3.70425 1.03571C3.10602 1.28351 2.56245 1.64671 2.10458 2.10458C1.64671 2.56245 1.28351 3.10602 1.03571 3.70425C0.787917 4.30249 0.660377 4.94367 0.660377 5.5912Z" stroke="#7D7D7D" stroke-width="1.25" stroke-linecap="round" stroke-linejoin="round"/>
</svg>
