<svg width="14" height="15" viewBox="0 0 14 15" fill="none" xmlns="http://www.w3.org/2000/svg">
<path d="M12.2145 3.57063C12.4501 3.70466 12.6458 3.89907 12.7814 4.13385C12.917 4.36863 12.9876 4.6353 12.9859 4.90642V9.90123C12.9859 10.456 12.6821 10.9675 12.1918 11.237L7.56319 14.1651C7.33372 14.291 7.07617 14.3571 6.81438 14.3571C6.5526 14.3571 6.29504 14.291 6.06557 14.1651L1.43693 11.237C1.19705 11.1059 0.996784 10.9128 0.857094 10.6778C0.717404 10.4428 0.643416 10.1746 0.642866 9.90123V4.90573C0.642866 4.35098 0.946642 3.84011 1.43693 3.57063L6.06557 0.841444C6.30183 0.711182 6.56722 0.642866 6.83701 0.642866C7.1068 0.642866 7.37219 0.711182 7.60845 0.841444L12.2371 3.57063H12.2145Z" stroke="#7D7D7D" stroke-width="1.25" stroke-linecap="round" stroke-linejoin="round"/>
<path d="M4.75721 7.49983C4.75721 8.04543 4.97395 8.56868 5.35974 8.95447C5.74554 9.34027 6.26879 9.557 6.81438 9.557C7.35998 9.557 7.88323 9.34027 8.26902 8.95447C8.65482 8.56868 8.87155 8.04543 8.87155 7.49983C8.87155 6.95424 8.65482 6.43099 8.26902 6.04519C7.88323 5.6594 7.35998 5.44266 6.81438 5.44266C6.26879 5.44266 5.74554 5.6594 5.35974 6.04519C4.97395 6.43099 4.75721 6.95424 4.75721 7.49983Z" stroke="#7D7D7D" stroke-width="1.25" stroke-linecap="round" stroke-linejoin="round"/>
</svg>
