<svg width="14" height="14" viewBox="0 0 14 14" fill="none" xmlns="http://www.w3.org/2000/svg">
<path d="M1.08299 4.88681H12.9168M1.08299 9.11319H12.9168M6.64776 0.660436C5.4611 2.56203 4.83197 4.75852 4.83197 7C4.83197 9.24148 5.4611 11.438 6.64776 13.3396M7.35213 0.660436C8.5388 2.56203 9.16792 4.75852 9.16792 7C9.16792 9.24148 8.5388 11.438 7.35213 13.3396M0.660371 7C0.660371 7.83252 0.824349 8.6569 1.14294 9.42605C1.46153 10.1952 1.9285 10.8941 2.51719 11.4827C3.10587 12.0714 3.80474 12.5384 4.57389 12.857C5.34304 13.1756 6.16741 13.3396 6.99994 13.3396C7.83246 13.3396 8.65683 13.1756 9.42598 12.857C10.1951 12.5384 10.894 12.0714 11.4827 11.4827C12.0714 10.8941 12.5383 10.1952 12.8569 9.42605C13.1755 8.6569 13.3395 7.83252 13.3395 7C13.3395 5.31864 12.6716 3.70615 11.4827 2.51725C10.2938 1.32835 8.68129 0.660436 6.99994 0.660436C5.31858 0.660436 3.70609 1.32835 2.51719 2.51725C1.32829 3.70615 0.660371 5.31864 0.660371 7Z" stroke="#7D7D7D" stroke-width="1.25" stroke-linecap="round" stroke-linejoin="round"/>
</svg>
