<svg width="14" height="14" viewBox="0 0 14 14" fill="none" xmlns="http://www.w3.org/2000/svg">
<path d="M1.083 4.88679H12.917M1.083 9.11321H12.917M6.64782 0.660377C5.46115 2.56199 4.83202 4.7585 4.83202 7C4.83202 9.2415 5.46115 11.438 6.64782 13.3396M7.3522 0.660377C8.53888 2.56199 9.16801 4.7585 9.16801 7C9.16801 9.2415 8.53888 11.438 7.3522 13.3396M0.660377 7C0.660377 7.83253 0.824356 8.65691 1.14295 9.42607C1.46155 10.1952 1.92852 10.8941 2.51721 11.4828C3.1059 12.0715 3.80477 12.5385 4.57393 12.857C5.34309 13.1756 6.16747 13.3396 7 13.3396C7.83253 13.3396 8.65691 13.1756 9.42607 12.857C10.1952 12.5385 10.8941 12.0715 11.4828 11.4828C12.0715 10.8941 12.5385 10.1952 12.857 9.42607C13.1756 8.65691 13.3396 7.83253 13.3396 7C13.3396 5.31863 12.6717 3.70612 11.4828 2.51721C10.2939 1.3283 8.68137 0.660377 7 0.660377C5.31863 0.660377 3.70612 1.3283 2.51721 2.51721C1.3283 3.70612 0.660377 5.31863 0.660377 7Z" stroke="#BF82FF" stroke-width="1.25" stroke-linecap="round" stroke-linejoin="round"/>
</svg>
